PathFileType	4	(X/Y/Z)	s05c0303.trc
DataRate	CameraRate	NumFrames	NumMarkers	Units	OrigDataRate	OrigDataStartFrame	OrigNumFrames
200	200	4	48	mm	200	750	2000
Frame#	Time	racr			lacr			c7			jug			rlel			rdr			llel			ldr			s2			lic			ric			lasi			rasi			rpsi			lpsi			rgt			lgt			rth1			rth2			rth3			rth4			rlfc			rsh1			rsh2			rsh3			rsh4			rlmal			rcal			rtoe			rmt5			rmt1			lth1			lth2			lth4			lth3			llfc			lmfc			lsh1			lsh2			lsh3			lsh4			llmal			lcal			ltoe			lmt5			SBIKE			LBIKE			RBIKE			
		X1	Y1	Z1	X2	Y2	Z2	X3	Y3	Z3	X4	Y4	Z4	X5	Y5	Z5	X6	Y6	Z6	X7	Y7	Z7	X8	Y8	Z8	X9	Y9	Z9	X10	Y10	Z10	X11	Y11	Z11	X12	Y12	Z12	X13	Y13	Z13	X14	Y14	Z14	X15	Y15	Z15	X16	Y16	Z16	X17	Y17	Z17	X18	Y18	Z18	X19	Y19	Z19	X20	Y20	Z20	X21	Y21	Z21	X22	Y22	Z22	X23	Y23	Z23	X24	Y24	Z24	X25	Y25	Z25	X26	Y26	Z26	X27	Y27	Z27	X28	Y28	Z28	X29	Y29	Z29	X30	Y30	Z30	X31	Y31	Z31	X32	Y32	Z32	X33	Y33	Z33	X34	Y34	Z34	X35	Y35	Z35	X36	Y36	Z36	X37	Y37	Z37	X38	Y38	Z38	X39	Y39	Z39	X40	Y40	Z40	X41	Y41	Z41	X42	Y42	Z42	X43	Y43	Z43	X44	Y44	Z44	X45	Y45	Z45	X46	Y46	Z46	X47	Y47	Z47	X48	Y48	Z48	
750	3.7500	801.535607	1251.722524	-213.292600	764.466217	1230.967418	-510.438089	786.566934	1326.711042	-375.651107	708.571948	1177.579811	-349.408773	617.111477	1120.473565	-21.200055	700.251397	916.581013	-89.437243	492.497582	1087.137885	-581.697734	668.332788	933.175559	-491.300113	200.083212	1288.166315	-246.640942	308.092328	1265.371325	-415.064145	370.558299	1251.760530	-136.623184	346.112340	1199.185400	-386.307973	378.111809	1180.463296	-168.925308	256.052569	1319.380607	-211.819220	241.184901	1329.596623	-296.631131	286.632273	1136.520751	-103.822300	221.382011	1194.423303	-433.088398	334.530462	1030.137979	-104.644070	381.452336	954.731347	-105.799387	383.971693	866.850196	-104.344696	413.962714	964.874038	-119.383148	415.307895	718.659938	-121.415238	319.018456	667.535326	-89.876883	265.703911	597.542244	-99.922491	187.525056	561.264859	-100.485652	284.529391	577.200476	-127.243422	81.963167	472.387057	-102.891485	19.221354	513.642351	-146.136475	131.246465	238.588311	-161.910365	68.946030	315.233738	-90.248751	0.000000	0.000000	-0.000000	290.028556	1068.076165	-465.987679	358.555102	1017.462561	-474.592659	389.378698	1037.613438	-463.912091	392.744416	933.797863	-481.096541	467.986717	803.032684	-457.287855	474.308040	790.537255	-347.534043	389.157822	695.554513	-467.803442	374.150763	610.124305	-454.051150	315.997448	543.147057	-443.312569	406.463308	598.513666	-436.439927	268.725610	437.200862	-427.305839	203.742596	408.803194	-380.216547	481.939462	318.703352	-412.091023	365.728060	318.352921	-465.892588	-172.320854	898.067391	-276.673681	-52.916570	79.290998	-474.013292	-52.882780	79.388129	-76.360387	
751	3.7550	801.315892	1253.347874	-211.859986	766.379986	1228.764513	-508.613192	787.010012	1326.558479	-374.735757	709.814638	1177.111135	-347.251881	616.276616	1120.456124	-21.719423	699.893278	916.373283	-89.517979	493.758689	1087.049306	-583.020068	668.434279	933.064678	-491.558770	199.530253	1286.763080	-249.708188	309.158967	1262.024356	-417.287426	369.319104	1252.426478	-138.396489	347.292920	1196.152100	-387.464895	376.472046	1180.497908	-169.941432	254.971479	1318.700462	-214.723945	240.848605	1327.198858	-299.818102	286.470474	1136.885653	-103.819562	222.445328	1190.310944	-434.762394	334.997529	1030.763243	-103.827250	383.807182	956.496351	-104.106018	387.710773	868.584753	-102.547483	415.760903	967.124056	-117.982123	421.325370	721.468663	-120.039485	323.836428	673.032843	-89.060182	269.151645	604.245044	-98.662037	189.968016	569.341786	-100.095924	287.941181	582.878566	-125.584459	83.868099	482.888332	-103.174347	21.477274	524.656834	-146.866737	131.475968	248.842790	-161.498455	69.416462	326.000277	-90.094158	0.000000	0.000000	-0.000000	290.132916	1062.448109	-466.007688	357.950156	1010.399731	-472.532227	388.824620	1030.209025	-462.546365	390.437460	926.090552	-478.260972	463.209763	795.178391	-452.729441	467.564186	782.585356	-343.457735	385.690263	687.173571	-464.927531	371.583514	601.993945	-452.243056	314.437556	534.459151	-442.888484	403.802926	590.663167	-434.434239	268.355988	426.418816	-426.773269	203.467700	397.650878	-380.027678	481.671078	307.078586	-411.554092	365.544167	307.462091	-465.528497	-172.331527	898.030617	-276.671267	-52.921372	79.248807	-474.033581	-52.885073	79.372473	-76.387497	
752	3.7600	801.028564	1254.935472	-210.115720	768.486060	1226.636878	-506.556462	787.461555	1326.391466	-373.490137	711.188465	1176.844477	-344.958244	615.352006	1120.458430	-21.926742	699.522903	916.212698	-89.601605	495.387921	1087.306650	-584.688126	668.536903	932.899252	-491.899315	199.228443	1284.971969	-253.182775	310.475757	1258.450596	-419.548709	368.042965	1253.047207	-140.252612	348.636795	1192.958376	-388.721858	376.013871	1180.794766	-169.589233	252.650474	1318.470933	-217.624245	240.692450	1324.699052	-303.220378	285.774747	1137.259443	-104.496424	223.821425	1186.028467	-436.727199	334.868685	1031.705011	-102.835716	385.781764	958.270645	-102.460783	391.380308	870.366543	-100.947356	417.620053	969.386717	-116.472354	427.536743	724.429463	-118.498784	329.018630	678.503218	-87.780299	272.338491	611.193335	-98.113031	193.094542	577.860153	-99.241809	291.491974	588.734642	-123.954354	86.292522	493.269186	-103.466969	24.489372	535.558819	-147.627302	132.330608	259.033177	-161.154445	70.537854	336.886722	-89.966410	0.000000	0.000000	-0.000000	290.358932	1056.494327	-466.070410	357.288841	1003.095162	-470.882497	388.377258	1022.383713	-461.161149	388.152307	918.096044	-475.368672	458.670506	787.078924	-447.841622	460.474279	774.434553	-339.321718	382.501603	679.011519	-462.629618	369.149716	593.552479	-450.239441	312.559330	525.501487	-441.873796	401.114527	582.506500	-431.786514	267.555360	415.850993	-426.150673	202.679558	387.245062	-379.811088	480.703815	295.335372	-411.081825	364.686322	296.749154	-465.117290	-172.340218	897.858828	-276.821495	-52.930045	79.237436	-474.039338	-52.888896	79.349044	-76.392272	
753	3.7650	800.678201	1256.363321	-208.073428	770.760571	1224.778876	-504.324534	787.969885	1326.297885	-372.121179	712.474651	1176.483415	-342.599352	613.942306	1120.290345	-22.338727	699.242842	916.126910	-89.648469	497.470751	1087.809387	-586.618751	668.706827	932.738220	-492.259474	198.653141	1283.107660	-257.184228	311.979266	1254.703957	-421.988987	366.508857	1253.624218	-142.218187	350.106363	1189.608609	-389.991702	374.935939	1181.281708	-170.119274	251.501846	1317.538821	-221.129086	240.596179	1322.210471	-306.937330	284.859599	1137.682265	-105.127371	225.399227	1181.471975	-438.826854	335.435858	1032.342957	-101.636981	387.841389	960.000433	-100.624886	394.922839	872.209469	-99.452017	419.602938	971.704802	-114.638184	433.952644	727.758564	-116.745740	334.634693	684.153819	-86.481655	276.576100	617.928613	-96.989507	196.683144	586.419125	-98.543473	295.492563	594.918299	-122.323786	89.331860	503.634159	-103.836651	28.036945	546.455190	-148.240412	134.040803	269.214865	-160.733204	72.444926	347.488231	-89.882309	0.000000	0.000000	-0.000000	290.720535	1050.217921	-466.122592	356.639845	995.466341	-469.196172	387.903734	1014.305668	-459.809198	385.823623	909.768899	-472.264844	453.699716	779.007205	-443.657967	453.594832	766.912123	-335.513423	379.473991	670.374146	-460.192488	366.759702	584.647543	-447.791315	310.589143	516.177733	-440.559579	398.310213	574.204774	-428.665661	266.337391	405.595520	-425.545014	201.506634	376.947469	-379.709288	479.112454	283.529329	-410.650667	363.171352	286.115589	-464.797224	-172.348698	897.819141	-276.930632	-52.938641	79.185088	-474.051884	-52.908463	79.342501	-76.397586	
